<?xml version="1.0" encoding="UTF-8" standalone="no"?>
<svg width="60px" height="42px" viewBox="0 0 60 42" version="1.1" xmlns="http://www.w3.org/2000/svg" xmlns:xlink="http://www.w3.org/1999/xlink">
    <!-- Generator: Sketch 3.6.1 (26313) - http://www.bohemiancoding.com/sketch -->
    <title>envelope-closed</title>
    <desc>Created with Sketch.</desc>
    <defs></defs>
    <g id="Visual-design-v2" stroke="none" stroke-width="1" fill="none" fill-rule="evenodd">
        <g id="contact" transform="translate(-539.000000, -450.000000)" fill="#141E27">
            <path d="M599,460 L599,487 C599,489.757 596.757,492 594,492 L544,492 C541.243,492 539,489.757 539,487 L539,460 C539,459.448 539.448,459 540,459 C540.552,459 541,459.448 541,460 L541,487 C541,488.654 542.346,490 544,490 L594,490 C595.654,490 597,488.654 597,487 L597,460 C597,459.448 597.448,459 598,459 C598.552,459 599,459.448 599,460 L599,460 Z M539,455 C539,452.243 541.243,450 544,450 L594,450 C596.757,450 599,452.243 599,455 C599,455.304 598.862,455.591 598.624,455.781 L572.667,476.531 C572.486,476.678 570.802,478 569,478 C567.206,478 565.537,476.627 565.352,476.471 L539.377,455.782 C539.139,455.592 539,455.305 539,455 Z M541.034,454.545 L566.623,474.926 C566.995,475.238 568.099,476 569,476 C569.929,476 571.058,475.258 571.414,474.972 L596.966,454.546 C596.747,453.107 595.5,452 594,452 L544,452 C542.5,452 541.254,453.106 541.034,454.545 L541.034,454.545 Z M557.382,473.214 L543.382,484.214 C542.948,484.555 542.873,485.184 543.214,485.618 C543.411,485.869 543.704,486 544,486 C544.217,486 544.435,485.93 544.618,485.786 L558.618,474.786 C559.052,474.445 559.127,473.816 558.786,473.382 C558.445,472.947 557.816,472.873 557.382,473.214 L557.382,473.214 Z M579.214,473.382 C578.873,473.816 578.948,474.445 579.382,474.786 L593.382,485.786 C593.565,485.93 593.783,486 593.999,486 C594.295,486 594.589,485.869 594.786,485.618 C595.127,485.184 595.052,484.555 594.618,484.214 L580.618,473.214 C580.184,472.873 579.555,472.948 579.214,473.382 L579.214,473.382 Z" id="envelope-closed"></path>
        </g>
    </g>
</svg>