<?xml version="1.0" encoding="UTF-8" standalone="no"?>
<svg width="60px" height="60px" viewBox="0 0 60 60" version="1.1" xmlns="http://www.w3.org/2000/svg" xmlns:xlink="http://www.w3.org/1999/xlink">
    <!-- Generator: Sketch 3.6.1 (26313) - http://www.bohemiancoding.com/sketch -->
    <title>phone</title>
    <desc>Created with Sketch.</desc>
    <defs></defs>
    <g id="Visual-design-v2" stroke="none" stroke-width="1" fill="none" fill-rule="evenodd">
        <g id="contact" transform="translate(-193.000000, -441.000000)" fill="#141E27">
            <path d="M245,452 C245,451.448 244.552,451 244,451 L224,451 C223.448,451 223,451.448 223,452 L223,464 C223,464.552 223.448,465 224,465 L244,465 C244.552,465 245,464.552 245,464 L245,452 L245,452 Z M225,453 L243,453 L243,463 L225,463 L225,453 Z M223,474 C223,474.552 223.448,475 224,475 L228,475 C228.552,475 229,474.552 229,474 L229,470 C229,469.448 228.552,469 228,469 L224,469 C223.448,469 223,469.448 223,470 L223,474 L223,474 Z M225,471 L227,471 L227,473 L225,473 L225,471 Z M237,470 C237,469.448 236.552,469 236,469 L232,469 C231.448,469 231,469.448 231,470 L231,474 C231,474.552 231.448,475 232,475 L236,475 C236.552,475 237,474.552 237,474 L237,470 L237,470 Z M233,471 L235,471 L235,473 L233,473 L233,471 Z M245,470 C245,469.448 244.552,469 244,469 L240,469 C239.448,469 239,469.448 239,470 L239,474 C239,474.552 239.448,475 240,475 L244,475 C244.552,475 245,474.552 245,474 L245,470 L245,470 Z M241,471 L243,471 L243,473 L241,473 L241,471 Z M223,482 C223,482.552 223.448,483 224,483 L228,483 C228.552,483 229,482.552 229,482 L229,478 C229,477.448 228.552,477 228,477 L224,477 C223.448,477 223,477.448 223,478 L223,482 L223,482 Z M225,479 L227,479 L227,481 L225,481 L225,479 Z M237,478 C237,477.448 236.552,477 236,477 L232,477 C231.448,477 231,477.448 231,478 L231,482 C231,482.552 231.448,483 232,483 L236,483 C236.552,483 237,482.552 237,482 L237,478 L237,478 Z M233,479 L235,479 L235,481 L233,481 L233,479 Z M245,478 C245,477.448 244.552,477 244,477 L240,477 C239.448,477 239,477.448 239,478 L239,482 C239,482.552 239.448,483 240,483 L244,483 C244.552,483 245,482.552 245,482 L245,478 L245,478 Z M241,479 L243,479 L243,481 L241,481 L241,479 Z M223,490 C223,490.552 223.448,491 224,491 L228,491 C228.552,491 229,490.552 229,490 L229,486 C229,485.448 228.552,485 228,485 L224,485 C223.448,485 223,485.448 223,486 L223,490 L223,490 Z M225,487 L227,487 L227,489 L225,489 L225,487 Z M236,485 L232,485 C231.448,485 231,485.448 231,486 L231,490 C231,490.552 231.448,491 232,491 L236,491 C236.552,491 237,490.552 237,490 L237,486 C237,485.448 236.552,485 236,485 L236,485 Z M233,487 L235,487 L235,489 L233,489 L233,487 Z M244,485 L240,485 C239.448,485 239,485.448 239,486 L239,490 C239,490.552 239.448,491 240,491 L244,491 C244.552,491 245,490.552 245,490 L245,486 C245,485.448 244.552,485 244,485 L244,485 Z M241,487 L243,487 L243,489 L241,489 L241,487 Z M253,448 L253,494 C253,496.757 250.757,499 248,499 L220,499 C219.448,499 219,498.552 219,498 C219,497.448 219.448,497 220,497 L248,497 C249.654,497 251,495.654 251,494 L251,448 C251,446.346 249.654,445 248,445 L220,445 C219.448,445 219,444.552 219,444 C219,443.448 219.448,443 220,443 L248,443 C250.757,443 253,445.243 253,448 L253,448 Z M217,444 L217,498 C217,499.654 215.654,501 214,501 L202,501 C200.696,501 199.584,500.164 199.171,499 L198,499 C195.103,499 193,496.897 193,494 L193,448 C193,446.239 193.957,444.587 195.497,443.69 C195.973,443.412 196.585,443.574 196.864,444.051 C197.142,444.529 196.98,445.141 196.503,445.419 C195.562,445.967 195,446.932 195,448 L195,494 C195,495.794 196.206,497 198,497 L200,497 C200.552,497 201,497.448 201,498 C201,498.551 201.449,499 202,499 L214,499 C214.551,499 215,498.551 215,498 L215,444 C215,443.449 214.551,443 214,443 L202,443 C201.449,443 201,443.449 201,444 L201,494 C201,494.552 200.552,495 200,495 C199.448,495 199,494.552 199,494 L199,444 C199,442.346 200.346,441 202,441 L214,441 C215.654,441 217,442.346 217,444 L217,444 Z" id="phone"></path>
        </g>
    </g>
</svg>